<svg width="18" height="18" viewBox="0 0 18 18" fill="none" xmlns="http://www.w3.org/2000/svg">
<path d="M1.89751 14.7375L2.90251 15.1575V8.385L1.08001 12.78C0.772513 13.545 1.14001 14.4225 1.89751 14.7375V14.7375ZM16.5225 11.9625L12.8025 2.985C12.57 2.4225 12.0225 2.0775 11.445 2.0625C11.25 2.0625 11.0475 2.0925 10.8525 2.175L5.32501 4.4625C4.76251 4.695 4.41751 5.235 4.40251 5.8125C4.39501 6.015 4.43251 6.2175 4.51501 6.4125L8.23501 15.39C8.46751 15.96 9.02251 16.305 9.60751 16.3125C9.80251 16.3125 9.99751 16.275 10.185 16.2L15.705 13.9125C16.47 13.5975 16.8375 12.72 16.5225 11.9625V11.9625ZM5.91001 6.5625C5.49751 6.5625 5.16001 6.225 5.16001 5.8125C5.16001 5.4 5.49751 5.0625 5.91001 5.0625C6.32251 5.0625 6.66001 5.4 6.66001 5.8125C6.66001 6.225 6.32251 6.5625 5.91001 6.5625V6.5625ZM4.41001 14.8125C4.41001 15.6375 5.08501 16.3125 5.91001 16.3125H6.99751L4.41001 10.0575V14.8125Z" fill="#90959F"/>
</svg>
